HIERARCHY
ROOT Hips
{
 OFFSET 0.000000 0.000000 0.000000
 CHANNELS 6 Xposition Yposition Zposition Yrotation Xrotation Zrotation
 JOINT Chest
 {
  OFFSET 0.000000 9.585900 0.002600
  CHANNELS 3 Yrotation Xrotation Zrotation
  JOINT Chest2
  {
   OFFSET 0.000000 9.601200 -0.005300
   CHANNELS 3 Yrotation Xrotation Zrotation
   JOINT Chest3
   {
    OFFSET 0.000000 9.561800 0.000000
    CHANNELS 3 Yrotation Xrotation Zrotation
    JOINT Chest4
    {
     OFFSET 0.000000 9.552100 0.000000
     CHANNELS 3 Yrotation Xrotation Zrotation
     JOINT Neck
     {
      OFFSET 0.000000 14.453000 0.000000
      CHANNELS 3 Yrotation Xrotation Zrotation
      JOINT Head
      {
       OFFSET 0.000000 8.936500 -0.011300
       CHANNELS 3 Yrotation Xrotation Zrotation
       End Site
       {
        OFFSET 0.000000 17.073600 -0.006000
       }
      }
     }
     JOINT RightCollar
     {
      OFFSET -2.921100 9.558500 0.000000
      CHANNELS 3 Yrotation Xrotation Zrotation
      JOINT RightShoulder
      {
       OFFSET -13.519700 0.000000 0.000000
       CHANNELS 3 Yrotation Xrotation Zrotation
       JOINT RightElbow
       {
        OFFSET 0.000000 -29.696600 0.000000
        CHANNELS 3 Yrotation Xrotation Zrotation
        JOINT RightWrist
        {
         OFFSET 0.000000 -24.004700 0.000000
         CHANNELS 3 Yrotation Xrotation Zrotation
         End Site
         {
          OFFSET 0.000000 -17.728500 0.000000
         }
        }
       }
      }
     }
     JOINT LeftCollar
     {
      OFFSET 2.921100 9.558500 0.000000
      CHANNELS 3 Yrotation Xrotation Zrotation
      JOINT LeftShoulder
      {
       OFFSET 13.519700 0.000000 0.000000
       CHANNELS 3 Yrotation Xrotation Zrotation
       JOINT LeftElbow
       {
        OFFSET 0.000000 -29.696600 0.000000
        CHANNELS 3 Yrotation Xrotation Zrotation
        JOINT LeftWrist
        {
         OFFSET 0.000000 -24.004700 0.000000
         CHANNELS 3 Yrotation Xrotation Zrotation
         End Site
         {
          OFFSET 0.000000 -17.728500 0.000000
         }
        }
       }
      }
     }
    }
   }
  }
 }
 JOINT RightHip
 {
  OFFSET -7.771700 -0.012900 -0.001300
  CHANNELS 3 Yrotation Xrotation Zrotation
  JOINT RightKnee
  {
   OFFSET 0.000000 -40.869800 0.001200
   CHANNELS 3 Yrotation Xrotation Zrotation
   JOINT RightAnkle
   {
    OFFSET 0.000000 -39.717900 0.002100
    CHANNELS 3 Yrotation Xrotation Zrotation
    JOINT RightToe
    {
     OFFSET 0.000000 -4.965400 11.033500
     CHANNELS 3 Yrotation Xrotation Zrotation
     End Site
     {
      OFFSET 0.000000 -1.423100 5.872300
     }
    }
   }
  }
 }
 JOINT LeftHip
 {
  OFFSET 7.771700 -0.012900 -0.001300
  CHANNELS 3 Yrotation Xrotation Zrotation
  JOINT LeftKnee
  {
   OFFSET 0.000000 -40.869800 0.001200
   CHANNELS 3 Yrotation Xrotation Zrotation
   JOINT LeftAnkle
   {
    OFFSET 0.000000 -39.717900 0.002100
    CHANNELS 3 Yrotation Xrotation Zrotation
    JOINT LeftToe
    {
     OFFSET 0.000000 -4.965400 11.033500
     CHANNELS 3 Yrotation Xrotation Zrotation
     End Site
     {
      OFFSET 0.000000 -1.423100 5.872300
     }
    }
   }
  }
 }
}
MOTION
Frames: 17
Frame Time: 0.008333
-57.177305 61.952945 15.213866 174.915162 -50.988656 -0.605925 4.589421 26.951421 1.768210 0.692183 4.674139 0.170398 1.121114 7.423983 0.307485 3.546636 21.949804 1.380173 0.818531 16.537969 1.141076 1.110638 -5.076814 1.835878 5.651283 5.302034 6.592903 1.679829 -10.163593 -17.686748 -92.560043 -54.978455 130.663742 12.424998 6.334693 8.815161 -11.948788 3.187650 -2.205872 -4.909272 -10.530170 19.244174 110.001222 -71.762963 -137.768153 5.965100 -2.277972 -11.679807 0.129313 -16.420492 -3.016658 -3.910792 63.859194 -7.006920 0.935041 -7.039690 7.231984 0.055639 -0.163644 0.039193 -2.830484 -13.977759 6.439691 23.933147 75.459390 25.179227 0.564337 -9.605748 -4.712435 -0.005418 0.165400 0.007607
-57.177773 61.952588 15.213724 174.918088 -50.986722 -0.605706 4.596722 26.961888 1.776321 0.696481 4.683567 0.173327 1.116691 7.417503 0.305436 3.543839 21.948882 1.380243 0.819346 16.533890 1.139389 1.139170 -5.068878 1.828800 5.688901 5.287870 6.601158 1.665185 -10.159460 -17.686982 -92.508649 -54.985003 130.659208 12.451341 6.335314 8.795075 -11.959430 3.176522 -2.196452 -4.917861 -10.526200 19.236339 109.967009 -71.772308 -137.745005 5.961682 -2.287786 -11.672993 0.131504 -16.423026 -3.015847 -3.906579 63.861790 -7.004951 0.930889 -7.039891 7.232152 0.053809 -0.164672 0.040618 -2.829615 -13.979709 6.440155 23.959190 75.457718 25.199331 0.559107 -9.610575 -4.705558 -0.005773 0.169440 0.002832
-57.178995 61.952410 15.213257 174.919909 -50.985283 -0.601061 4.597336 26.965780 1.774843 0.704962 4.693576 0.179367 1.112411 7.414023 0.302755 3.535641 21.942169 1.376777 0.837550 16.547974 1.141032 1.180507 -5.053327 1.815624 5.707147 5.282564 6.603153 1.658174 -10.156678 -17.684317 -92.511034 -54.990705 130.656698 12.454126 6.341391 8.811008 -11.958923 3.179278 -2.189931 -4.938487 -10.525875 19.228936 109.943559 -71.785338 -137.728233 5.958682 -2.294980 -11.667169 0.133995 -16.425790 -3.021766 -3.909096 63.866019 -7.006901 0.933299 -7.041490 7.231214 0.053962 -0.164677 0.039070 -2.827341 -13.981112 6.435784 23.981318 75.456238 25.216361 0.555980 -9.614048 -4.701240 -0.007343 0.171514 0.001819
-57.180028 61.951101 15.213660 174.921919 -50.974280 -0.599527 4.599835 26.960378 1.776769 0.711826 4.700008 0.184545 1.102842 7.406189 0.296651 3.554042 21.956533 1.386905 0.841870 16.547972 1.139347 1.201018 -5.048972 1.806998 5.696850 5.263969 6.598090 1.659349 -10.154082 -17.680394 -92.480896 -54.990122 130.642315 12.470754 6.340721 8.812065 -11.976781 3.163899 -2.184727 -4.970438 -10.515216 19.229328 109.964742 -71.788441 -137.730813 5.974232 -2.249977 -11.720991 0.133007 -16.438285 -3.023953 -3.905289 63.867830 -7.006746 0.936663 -7.041921 7.232328 0.050871 -0.163752 0.037153 -2.821829 -13.993970 6.444342 23.949321 75.462439 25.179520 0.543556 -9.618447 -4.697713 0.002898 0.173202 0.007198
-57.181457 61.950597 15.213330 174.921912 -50.968794 -0.595125 4.609655 26.965560 1.784805 0.712190 4.699000 0.185593 1.105030 7.410795 0.297261 3.558855 21.958648 1.390349 0.875463 16.561956 1.140092 1.186811 -5.062779 1.804874 5.687489 5.247841 6.591942 1.669375 -10.150403 -17.675714 -92.444288 -54.991389 130.616877 12.490513 6.344116 8.818023 -11.996803 3.150227 -2.178797 -4.974629 -10.516817 19.224281 109.947204 -71.791923 -137.723372 5.978549 -2.222338 -11.748814 0.133226 -16.444157 -3.026324 -3.899759 63.867987 -7.007285 0.937722 -7.040900 7.234722 0.047969 -0.162056 0.033421 -2.819391 -13.999887 6.443275 23.933271 75.466587 25.159450 0.545303 -9.621487 -4.696159 0.002919 0.174057 0.008779
-57.182701 61.950423 15.212741 174.924277 -50.965228 -0.594791 4.628803 26.975896 1.806536 0.701860 4.691630 0.177365 1.109562 7.415998 0.302249 3.564327 21.959687 1.394850 0.874450 16.560351 1.134653 1.184225 -5.066228 1.803788 5.713507 5.237030 6.573708 1.638629 -10.150419 -17.661759 -92.427848 -54.987565 130.609739 12.504454 6.346257 8.818452 -12.018796 3.136371 -2.175683 -4.991650 -10.507547 19.224625 109.921741 -71.796244 -137.708580 5.975828 -2.219549 -11.745410 0.131169 -16.448003 -3.027364 -3.902160 63.868247 -7.012020 0.939403 -7.039573 7.235225 0.046655 -0.161370 0.030796 -2.818251 -14.003173 6.443805 23.914284 75.469822 25.139037 0.545357 -9.625196 -4.697292 0.004075 0.175619 0.011072
-57.184077 61.950341 15.212053 174.923011 -50.962001 -0.591715 4.633146 26.975133 1.808062 0.704977 4.695248 0.178459 1.120550 7.424499 0.308623 3.556891 21.952032 1.395988 0.870309 16.558936 1.130151 1.194045 -5.063710 1.799955 5.722567 5.231126 6.562589 1.653586 -10.135460 -17.649281 -92.449830 -54.996920 130.618095 12.494039 6.350156 8.838883 -12.030464 3.126734 -2.173955 -5.009933 -10.498076 19.227734 109.834183 -71.810185 -137.667654 5.963383 -2.253854 -11.696201 0.132813 -16.452055 -3.026992 -3.930098 63.867437 -7.043438 0.953522 -7.037388 7.242650 0.041126 -0.163118 0.026978 -2.812563 -14.005055 6.443247 23.897878 75.469871 25.124745 0.541598 -9.629651 -4.699417 0.007262 0.178411 0.013608
-57.185286 61.950344 15.211261 174.930443 -50.959299 -0.596807 4.632286 26.975027 1.809771 0.706531 4.699602 0.179914 1.119817 7.424425 0.308106 3.562149 21.955759 1.397315 0.869768 16.553791 1.130213 1.249527 -5.045196 1.783762 5.739518 5.221590 6.556343 1.636593 -10.135870 -17.639191 -92.386530 -54.991658 130.602950 12.513415 6.340453 8.831429 -12.038172 3.114461 -2.168504 -5.020209 -10.490628 19.234784 109.779007 -71.811132 -137.641228 5.956197 -2.253289 -11.688557 0.128455 -16.454700 -3.028104 -3.932647 63.868759 -7.045441 0.955603 -7.038888 7.243288 0.039995 -0.162320 0.025321 -2.813634 -14.006963 6.446658 23.848041 75.474167 25.075442 0.542584 -9.633834 -4.699043 0.011545 0.180630 0.015022
-57.186363 61.950787 15.210051 174.932697 -50.959876 -0.598464 4.638446 26.987053 1.818151 0.703898 4.696679 0.178425 1.116558 7.418200 0.305079 3.582330 21.980635 1.407829 0.884259 16.552149 1.128409 1.245355 -5.059977 1.783212 5.742162 5.195454 6.546490 1.623615 -10.136375 -17.631030 -92.360575 -54.993109 130.590174 12.522588 6.336798 8.852720 -12.056752 3.086034 -2.164923 -5.030007 -10.488021 19.237223 109.725621 -71.819954 -137.617498 5.964888 -2.220058 -11.730927 0.126684 -16.454110 -3.028759 -3.932744 63.871151 -7.045107 0.957561 -7.042354 7.242906 0.039428 -0.160127 0.023629 -2.815333 -14.004785 6.448569 23.839346 75.472822 25.065932 0.536504 -9.633721 -4.700638 0.014118 0.178801 0.015091
-57.186753 61.950549 15.209343 174.928745 -50.955226 -0.599297 4.644426 26.990073 1.827048 0.704538 4.698250 0.178811 1.121471 7.420495 0.304607 3.581776 21.982954 1.411526 0.890991 16.552140 1.125778 1.258731 -5.060046 1.775960 5.741938 5.182188 6.539209 1.642146 -10.129938 -17.622907 -92.354498 -55.000914 130.578774 12.532556 6.337294 8.869196 -12.065616 3.070514 -2.162972 -5.041248 -10.480805 19.238491 109.718151 -71.821942 -137.615138 5.965722 -2.211631 -11.745771 0.126763 -16.458128 -3.026365 -3.912971 63.872649 -7.022554 0.948559 -7.052372 7.234080 0.041964 -0.149997 0.026852 -2.815619 -14.008704 6.455110 23.832986 75.475294 25.058410 0.532185 -9.636142 -4.702287 0.016757 0.177460 0.015398
-57.187688 61.950182 15.208543 174.920786 -50.949546 -0.592977 4.649077 26.992342 1.829739 0.704880 4.699798 0.179139 1.123852 7.423119 0.306677 3.580424 21.985182 1.411605 0.899079 16.552981 1.122918 1.274737 -5.058494 1.767764 5.761921 5.168564 6.525944 1.657637 -10.119114 -17.600158 -92.371003 -55.015933 130.573685 12.541335 6.342449 8.884199 -12.068907 3.055151 -2.159577 -5.068522 -10.472999 19.249054 109.660631 -71.827041 -137.580409 5.959507 -2.235901 -11.711013 0.133805 -16.463813 -3.026535 -3.916520 63.874609 -7.024934 0.949483 -7.064010 7.233171 0.037929 -0.143632 0.025017 -2.812019 -14.013757 6.456115 23.839113 75.478471 25.062977 0.528091 -9.641686 -4.701559 0.018288 0.177221 0.013852
-57.188915 61.950068 15.207365 174.917711 -50.945627 -0.587410 4.648951 26.992664 1.826969 0.704996 4.700557 0.179277 1.125891 7.441271 0.312511 3.576667 21.973354 1.406233 0.909074 16.557570 1.121762 1.290800 -5.055770 1.760550 5.779974 5.156294 6.520167 1.646040 -10.117495 -17.593445 -92.353895 -55.013949 130.568689 12.551231 6.344920 8.883389 -12.069377 3.044433 -2.153288 -5.076427 -10.472867 19.247089 109.580852 -71.838602 -137.544139 5.957250 -2.242539 -11.705855 0.138193 -16.468857 -3.032372 -3.913174 63.879190 -7.018236 0.951488 -7.072830 7.230954 0.034820 -0.138953 0.024905 -2.808468 -14.015832 6.452185 23.837616 75.478207 25.062016 0.526528 -9.647302 -4.703353 0.019069 0.179505 0.014621
-57.190007 61.949879 15.206162 174.916989 -50.940718 -0.583035 4.646770 26.992345 1.822829 0.705077 4.701227 0.179364 1.128224 7.444714 0.313847 3.577564 21.977117 1.409893 0.913324 16.556974 1.117961 1.301040 -5.052773 1.755577 5.794953 5.137442 6.511325 1.633669 -10.111592 -17.585770 -92.333547 -55.013730 130.560594 12.560085 6.346681 8.885631 -12.071830 3.030371 -2.146236 -5.085723 -10.471497 19.242816 109.519188 -71.848170 -137.510738 5.958038 -2.218766 -11.743693 0.140733 -16.475366 -3.035726 -3.906595 63.884633 -7.012438 0.948136 -7.079546 7.230725 0.034742 -0.139071 0.023889 -2.805224 -14.019177 6.448082 23.830655 75.476328 25.055703 0.526399 -9.648950 -4.703746 0.018214 0.180412 0.014478
-57.190011 61.950292 15.204542 174.914454 -50.939855 -0.581870 4.652321 27.005467 1.833151 0.705462 4.696261 0.174029 1.125199 7.438297 0.312129 3.581756 21.986275 1.418217 0.909335 16.548939 1.110814 1.303818 -5.051491 1.753935 5.804709 5.123940 6.503976 1.645076 -10.108827 -17.581786 -92.325283 -55.019282 130.542963 12.573682 6.364347 8.949513 -12.076905 3.016953 -2.148407 -5.102190 -10.469311 19.249805 109.461264 -71.855877 -137.473550 5.953679 -2.206770 -11.756609 0.139543 -16.477163 -3.033374 -3.894476 63.889151 -7.001548 0.940636 -7.084711 7.227206 0.041586 -0.140222 0.024091 -2.802624 -14.019299 6.450137 23.820462 75.481822 25.043226 0.532253 -9.653923 -4.701140 0.013588 0.179961 0.012812
-57.189315 61.951137 15.202684 174.913592 -50.941666 -0.584363 4.655251 27.011653 1.840601 0.705030 4.705037 0.181082 1.123228 7.433044 0.308333 3.582414 21.983381 1.415390 0.915681 16.556911 1.109004 1.318408 -5.045113 1.740922 5.817972 5.118676 6.495093 1.672372 -10.108860 -17.566128 -92.338815 -55.036179 130.519192 12.589434 6.375301 8.981684 -12.080608 3.010651 -2.149723 -5.120058 -10.462944 19.258331 109.411259 -71.863036 -137.440772 5.946926 -2.202402 -11.760922 0.136845 -16.474987 -3.029867 -3.873668 63.893792 -6.979384 0.928073 -7.092002 7.221490 0.047177 -0.142770 0.023742 -2.801495 -14.016696 6.452993 23.814593 75.487721 25.040357 0.534607 -9.659139 -4.705459 0.013717 0.178774 0.013656
-57.189122 61.950914 15.201792 174.914452 -50.934466 -0.584132 4.654426 27.006107 1.840109 0.704356 4.711336 0.183732 1.124988 7.437172 0.312028 3.578696 21.973036 1.408424 0.925315 16.564793 1.108219 1.328621 -5.036903 1.731664 5.841522 5.118466 6.485803 1.662020 -10.113827 -17.553573 -92.337162 -55.040751 130.510609 12.603307 6.384086 8.999440 -12.084507 3.004919 -2.144322 -5.160099 -10.450177 19.275119 109.361515 -71.863197 -137.382529 5.940045 -2.213357 -11.746593 0.135950 -16.480730 -3.029274 -3.872170 63.892900 -6.977787 0.924485 -7.097731 7.221588 0.047900 -0.140116 0.022398 -2.807293 -14.023225 6.450717 23.828392 75.486925 25.051840 0.536740 -9.658538 -4.708773 0.011646 0.177481 0.012845
-57.188802 61.950458 15.201319 174.916315 -50.924774 -0.584312 4.651500 27.005395 1.840776 0.703147 4.711341 0.184060 1.124229 7.440087 0.313221 3.577229 21.968903 1.407751 0.932232 16.567583 1.104192 1.342996 -5.031679 1.721500 5.861713 5.114359 6.471742 1.646365 -10.119092 -17.544333 -92.334903 -55.038831 130.519567 12.629347 6.400201 9.022579 -12.090867 2.995331 -2.143099 -5.171086 -10.443149 19.281190 109.311012 -71.866761 -137.347660 5.932882 -2.223787 -11.730685 0.135154 -16.489826 -3.029782 -3.871737 63.893033 -6.976385 0.923170 -7.102294 7.222025 0.047965 -0.138771 0.020928 -2.809650 -14.033234 6.447694 23.835481 75.486423 25.060954 0.537397 -9.656753 -4.711876 0.011843 0.175942 0.012775
